<svg width="12" height="13" viewBox="0 0 12 13" fill="none" xmlns="http://www.w3.org/2000/svg">
<path fill-rule="evenodd" clip-rule="evenodd" d="M5.99997 1.26526C6.16242 1.26526 6.30639 1.36986 6.3566 1.52435L7.49115 5.01526H11.25C11.4143 5.01526 11.5595 5.12227 11.6082 5.27925C11.6568 5.43622 11.5976 5.60659 11.462 5.69953L8.41474 7.78911L9.58965 11.2703C9.64183 11.4249 9.58806 11.5955 9.45667 11.6922C9.32527 11.789 9.14642 11.7897 9.0143 11.6939L5.99997 9.50961L2.98563 11.6939C2.85352 11.7897 2.67466 11.789 2.54327 11.6922C2.41188 11.5955 2.35811 11.4249 2.41028 11.2703L3.5852 7.78911L0.537894 5.69953C0.402354 5.60659 0.343124 5.43622 0.391775 5.27925C0.440427 5.12227 0.585622 5.01526 0.749967 5.01526H4.50878L5.64333 1.52435C5.69354 1.36986 5.83752 1.26526 5.99997 1.26526ZM5.99997 2.85351L5.13785 5.50617C5.08764 5.66066 4.94367 5.76526 4.78122 5.76526H1.95994L4.24329 7.33099C4.38169 7.42589 4.44019 7.60118 4.38653 7.76018L3.4964 10.3976L5.77993 8.74285C5.9112 8.64773 6.08873 8.64773 6.22001 8.74285L8.50353 10.3976L7.61341 7.76018C7.55975 7.60118 7.61825 7.42589 7.75664 7.33099L10.04 5.76526H7.21872C7.05627 5.76526 6.91229 5.66066 6.86208 5.50617L5.99997 2.85351Z" fill="#FF859B"/>
</svg>
